<?xml version="1.0" encoding="utf-8"?>
<!-- Generator: Adobe Illustrator 22.0.1, SVG Export Plug-In . SVG Version: 6.00 Build 0)  -->
<svg version="1.1"
	 id="svg2" inkscape:version="0.91 r13725" xmlns:cc="http://web.resource.org/cc/" xmlns:dc="http://purl.org/dc/elements/1.1/" xmlns:inkscape="http://www.inkscape.org/namespaces/inkscape" xmlns:ns1="http://sozi.baierouge.fr" xmlns:rdf="http://www.w3.org/1999/02/22-rdf-syntax-ns#" xmlns:sodipodi="http://sodipodi.sourceforge.net/DTD/sodipodi-0.dtd" xmlns:svg="http://www.w3.org/2000/svg"
	 xmlns="http://www.w3.org/2000/svg" xmlns:xlink="http://www.w3.org/1999/xlink" x="0px" y="0px" viewBox="0 0 275.4 204.1"
	 style="enable-background:new 0 0 275.4 204.1;" xml:space="preserve">
<style type="text/css">
	.st0{fill:#6CCCDE;}
</style>
<g id="g238">
	<path id="path1337" class="st0" d="M85.1,191.5c-9.6-12.8-11.7-16.2-10.5-32.4c1.5-21.3,1-21.3-27.8,0c-13.3,9.8-15.9,14.6-14.2,26
		c1.6,11,0.2,14-6.8,14c-15.1,0-11.9-33,5.2-53.8c7.8-9.4,9.4-22.2,13.3-33.1c5.3-14.7,8.2-26.8,7-30.2c-6.1-19-6.7-27.5-20.2-47.3
		C9.8,3.6-3.2,5.5,0.7,0.8s25.6,11.3,35.7,26.5C46.5,42.6,54,58.9,63.9,64.2c9.9,5.3,96.9,23,130.1,11.1c14.1-5,32-12.3,47.8-10.6
		c8.6,1,14.7-15.7,18.1-12.7c2.7,2.4-4.9,9,10.3,20.8c4.2,3.3,5.4,9.5,5.2,14.6c-0.6,17.3-10.5,11.5-23.7,11.5
		c-9.9,0-32.4,13.7-31.9,27.8c0.2,6.1,3.9,24.1,11.3,37.5c4.9,8.9,8.4,17.4,11.3,22.7c4.6,8.3,8.2,9.8-1.3,12.1
		c-2.2,0.5-6.8-5.2-10.3-11.6c-3.4-6.4-14.6-29.1-22.3-34.8c-12.8-9.5-11-9.7-13.9-2.2c-1.7,4.5-2.1,27.2,0.7,34.8
		c4.2,11.2,6.1,13.9-1.6,13.9c-3.8,0-6.9-4.3-6.9-9.6c0-5.3-3.9-18.3-7.8-29.1c-4.3-12,1.8-14.6-7.8-19.5s-9,0.3-32.1,2.1
		c-23.1,1.8-30.1-1-39.4,12.1c-13.2,18.6-12.7,24.6,3.3,37.7c8.6,7,8.3,11.4,3.6,11.4C95.1,204.1,91.4,200,85.1,191.5L85.1,191.5z"
		/>
</g>
</svg>
