<?xml version="1.0" encoding="utf-8"?>
<!-- Generator: Adobe Illustrator 22.0.1, SVG Export Plug-In . SVG Version: 6.00 Build 0)  -->
<svg version="1.1" id="Layer_1" xmlns="http://www.w3.org/2000/svg" xmlns:xlink="http://www.w3.org/1999/xlink" x="0px" y="0px"
	 viewBox="0 0 100 100" style="enable-background:new 0 0 100 100;" xml:space="preserve">
<style type="text/css">
	.st0{fill:#808080;}
</style>
<path class="st0" d="M64.5,65c-2.4,0-4.3,1.8-4.3,4.3v13.2c0,1.4-0.2,1.7-1.6,1.7H58c-0.2-5.6-1.3-11.7-4.2-14.5
	c2.1-1.3,3.5-3.6,3.5-6.2c0-2.6-1.4-4.9-3.5-6.2l-1.2-4.5l-1,3.6c-0.5-0.1-1-0.2-1.6-0.2s-1.1,0.1-1.6,0.2l-1-3.6l-1.2,4.5
	c-2.1,1.3-3.5,3.6-3.5,6.2c0,2.6,1.4,4.9,3.5,6.2c-3.4,3.3-4.3,10.9-4.3,17.1h13.3H58h0.5c2.8,0,4.2-1.4,4.2-4.3V69.3
	c0-1,0.7-1.7,1.7-1.7c0.7,0,1.3-0.6,1.3-1.3C65.7,65.6,65.2,65,64.5,65z"/>
<polygon class="st0" points="10,41.8 5.6,45.2 5.6,36.6 50,2.7 50,11.3 14.2,38.6 14.2,89 50,89 50,97.3 10,97.3 "/>
<polygon class="st0" points="90,41.8 94.4,45.2 94.4,36.6 50,2.7 50,11.3 85.8,38.6 85.8,89 50,89 50,97.3 90,97.3 "/>
</svg>
